<mxfile host="app.diagrams.net" modified="2021-04-27T15:06:35.981Z" agent="5.0 (Windows NT 10.0; Win64; x64) AppleWebKit/537.36 (KHTML, like Gecko) Chrome/90.0.4430.85 Safari/537.36 Edg/90.0.818.46" etag="nhgZ_fyL9djA0YC_kZjg" version="14.6.6" type="github">
  <diagram id="Lawi1tIbsT6B6tBGYx7M" name="Page-1">
    <mxGraphModel dx="900" dy="1002" grid="1" gridSize="10" guides="1" tooltips="1" connect="1" arrows="1" fold="1" page="1" pageScale="1" pageWidth="1654" pageHeight="2336" math="0" shadow="0">
      <root>
        <mxCell id="0" />
        <mxCell id="1" parent="0" />
        <mxCell id="xuh5IIpC34kz-FPivGkV-3" value="" style="group" vertex="1" connectable="0" parent="1">
          <mxGeometry x="80" y="130" width="160" height="80" as="geometry" />
        </mxCell>
        <mxCell id="xuh5IIpC34kz-FPivGkV-1" value="&lt;font style=&quot;font-size: 16px&quot; color=&quot;#666666&quot;&gt;&lt;b&gt;Service &lt;br&gt;Thread Pool&lt;/b&gt;&lt;/font&gt;" style="rounded=0;whiteSpace=wrap;html=1;" vertex="1" parent="xuh5IIpC34kz-FPivGkV-3">
          <mxGeometry width="160" height="40" as="geometry" />
        </mxCell>
        <mxCell id="xuh5IIpC34kz-FPivGkV-2" value="&lt;font style=&quot;font-size: 14px&quot;&gt;&lt;i&gt;Init Service Thread&lt;/i&gt;&lt;/font&gt;" style="rounded=0;whiteSpace=wrap;html=1;" vertex="1" parent="xuh5IIpC34kz-FPivGkV-3">
          <mxGeometry y="40" width="160" height="40" as="geometry" />
        </mxCell>
        <mxCell id="xuh5IIpC34kz-FPivGkV-4" value="" style="group" vertex="1" connectable="0" parent="1">
          <mxGeometry x="360" y="120" width="160" height="80" as="geometry" />
        </mxCell>
        <mxCell id="xuh5IIpC34kz-FPivGkV-5" value="&lt;font style=&quot;font-size: 16px&quot; color=&quot;#666666&quot;&gt;&lt;b&gt;Network Card Thread Pool&lt;/b&gt;&lt;/font&gt;" style="rounded=0;whiteSpace=wrap;html=1;" vertex="1" parent="xuh5IIpC34kz-FPivGkV-4">
          <mxGeometry width="160" height="40" as="geometry" />
        </mxCell>
        <mxCell id="xuh5IIpC34kz-FPivGkV-6" value="&lt;font style=&quot;font-size: 14px&quot;&gt;&lt;i&gt;Card Thread&lt;/i&gt;&lt;/font&gt;" style="rounded=0;whiteSpace=wrap;html=1;" vertex="1" parent="xuh5IIpC34kz-FPivGkV-4">
          <mxGeometry y="40" width="160" height="40" as="geometry" />
        </mxCell>
        <mxCell id="xuh5IIpC34kz-FPivGkV-7" value="" style="group" vertex="1" connectable="0" parent="1">
          <mxGeometry x="140" y="350" width="160" height="80" as="geometry" />
        </mxCell>
        <mxCell id="xuh5IIpC34kz-FPivGkV-8" value="&lt;font style=&quot;font-size: 16px&quot; color=&quot;#666666&quot;&gt;&lt;b&gt;Pcap Capture Thread Pool&lt;/b&gt;&lt;/font&gt;" style="rounded=0;whiteSpace=wrap;html=1;" vertex="1" parent="xuh5IIpC34kz-FPivGkV-7">
          <mxGeometry width="160" height="40" as="geometry" />
        </mxCell>
        <mxCell id="xuh5IIpC34kz-FPivGkV-9" value="&lt;font style=&quot;font-size: 14px&quot;&gt;&lt;i&gt;Pcap Capture Thread&lt;/i&gt;&lt;/font&gt;" style="rounded=0;whiteSpace=wrap;html=1;" vertex="1" parent="xuh5IIpC34kz-FPivGkV-7">
          <mxGeometry y="40" width="160" height="40" as="geometry" />
        </mxCell>
        <mxCell id="xuh5IIpC34kz-FPivGkV-13" value="" style="group" vertex="1" connectable="0" parent="1">
          <mxGeometry x="330" y="350" width="160" height="80" as="geometry" />
        </mxCell>
        <mxCell id="xuh5IIpC34kz-FPivGkV-14" value="&lt;font style=&quot;font-size: 16px&quot; color=&quot;#666666&quot;&gt;&lt;b&gt;Pcap Send&lt;br&gt;&amp;nbsp;Thread Pool&lt;/b&gt;&lt;/font&gt;" style="rounded=0;whiteSpace=wrap;html=1;" vertex="1" parent="xuh5IIpC34kz-FPivGkV-13">
          <mxGeometry width="160" height="40" as="geometry" />
        </mxCell>
        <mxCell id="xuh5IIpC34kz-FPivGkV-15" value="&lt;font style=&quot;font-size: 14px&quot;&gt;&lt;i&gt;Pcap Send Thread&lt;/i&gt;&lt;/font&gt;" style="rounded=0;whiteSpace=wrap;html=1;" vertex="1" parent="xuh5IIpC34kz-FPivGkV-13">
          <mxGeometry y="40" width="160" height="40" as="geometry" />
        </mxCell>
        <mxCell id="xuh5IIpC34kz-FPivGkV-16" value="" style="group" vertex="1" connectable="0" parent="1">
          <mxGeometry x="530" y="350" width="160" height="80" as="geometry" />
        </mxCell>
        <mxCell id="xuh5IIpC34kz-FPivGkV-17" value="&lt;font style=&quot;font-size: 16px&quot; color=&quot;#666666&quot;&gt;&lt;b&gt;Pcap Scheduled&lt;br&gt;Thread Pool&lt;/b&gt;&lt;/font&gt;" style="rounded=0;whiteSpace=wrap;html=1;" vertex="1" parent="xuh5IIpC34kz-FPivGkV-16">
          <mxGeometry width="160" height="40" as="geometry" />
        </mxCell>
        <mxCell id="xuh5IIpC34kz-FPivGkV-18" value="&lt;font style=&quot;font-size: 14px&quot;&gt;&lt;i&gt;Send Notify Thread&lt;/i&gt;&lt;/font&gt;" style="rounded=0;whiteSpace=wrap;html=1;" vertex="1" parent="xuh5IIpC34kz-FPivGkV-16">
          <mxGeometry y="40" width="160" height="40" as="geometry" />
        </mxCell>
        <mxCell id="xuh5IIpC34kz-FPivGkV-19" value="" style="group" vertex="1" connectable="0" parent="1">
          <mxGeometry x="130" y="690" width="160" height="80" as="geometry" />
        </mxCell>
        <mxCell id="xuh5IIpC34kz-FPivGkV-20" value="&lt;font style=&quot;font-size: 16px&quot; color=&quot;#666666&quot;&gt;&lt;b&gt;Packet Parse&lt;br&gt;&amp;nbsp;Thread Pool&lt;/b&gt;&lt;/font&gt;" style="rounded=0;whiteSpace=wrap;html=1;" vertex="1" parent="xuh5IIpC34kz-FPivGkV-19">
          <mxGeometry width="160" height="40" as="geometry" />
        </mxCell>
        <mxCell id="xuh5IIpC34kz-FPivGkV-21" value="&lt;font style=&quot;font-size: 14px&quot;&gt;&lt;i&gt;Packet Parse Thread&lt;/i&gt;&lt;/font&gt;" style="rounded=0;whiteSpace=wrap;html=1;" vertex="1" parent="xuh5IIpC34kz-FPivGkV-19">
          <mxGeometry y="40" width="160" height="40" as="geometry" />
        </mxCell>
        <mxCell id="xuh5IIpC34kz-FPivGkV-22" value="" style="group" vertex="1" connectable="0" parent="1">
          <mxGeometry x="130" y="530" width="160" height="80" as="geometry" />
        </mxCell>
        <mxCell id="xuh5IIpC34kz-FPivGkV-23" value="&lt;font style=&quot;font-size: 16px&quot; color=&quot;#666666&quot;&gt;&lt;b&gt;Packet Dispatcher&lt;br&gt;&amp;nbsp;Thread Pool&lt;/b&gt;&lt;/font&gt;" style="rounded=0;whiteSpace=wrap;html=1;" vertex="1" parent="xuh5IIpC34kz-FPivGkV-22">
          <mxGeometry width="160" height="40" as="geometry" />
        </mxCell>
        <mxCell id="xuh5IIpC34kz-FPivGkV-24" value="&lt;font style=&quot;font-size: 14px&quot;&gt;&lt;i&gt;Packet Dispatcher Thread&lt;/i&gt;&lt;/font&gt;" style="rounded=0;whiteSpace=wrap;html=1;" vertex="1" parent="xuh5IIpC34kz-FPivGkV-22">
          <mxGeometry y="40" width="160" height="40" as="geometry" />
        </mxCell>
        <mxCell id="xuh5IIpC34kz-FPivGkV-25" value="" style="group" vertex="1" connectable="0" parent="1">
          <mxGeometry x="720" y="350" width="160" height="80" as="geometry" />
        </mxCell>
        <mxCell id="xuh5IIpC34kz-FPivGkV-26" value="&lt;font style=&quot;font-size: 16px&quot; color=&quot;#666666&quot;&gt;&lt;b&gt;Socket Server&lt;br&gt;&amp;nbsp;Thread Pool&lt;/b&gt;&lt;/font&gt;" style="rounded=0;whiteSpace=wrap;html=1;" vertex="1" parent="xuh5IIpC34kz-FPivGkV-25">
          <mxGeometry width="160" height="40" as="geometry" />
        </mxCell>
        <mxCell id="xuh5IIpC34kz-FPivGkV-27" value="&lt;font style=&quot;font-size: 14px&quot;&gt;&lt;i&gt;Socket Server Thread&lt;/i&gt;&lt;/font&gt;" style="rounded=0;whiteSpace=wrap;html=1;" vertex="1" parent="xuh5IIpC34kz-FPivGkV-25">
          <mxGeometry y="40" width="160" height="40" as="geometry" />
        </mxCell>
        <mxCell id="xuh5IIpC34kz-FPivGkV-28" value="" style="group" vertex="1" connectable="0" parent="1">
          <mxGeometry x="910" y="350" width="160" height="80" as="geometry" />
        </mxCell>
        <mxCell id="xuh5IIpC34kz-FPivGkV-29" value="&lt;font style=&quot;font-size: 16px&quot; color=&quot;#666666&quot;&gt;&lt;b&gt;Socket Client&lt;br&gt;&amp;nbsp;Thread Pool&lt;/b&gt;&lt;/font&gt;" style="rounded=0;whiteSpace=wrap;html=1;" vertex="1" parent="xuh5IIpC34kz-FPivGkV-28">
          <mxGeometry width="160" height="40" as="geometry" />
        </mxCell>
        <mxCell id="xuh5IIpC34kz-FPivGkV-30" value="&lt;font style=&quot;font-size: 14px&quot;&gt;&lt;i&gt;Socket Client Thread&lt;/i&gt;&lt;/font&gt;" style="rounded=0;whiteSpace=wrap;html=1;" vertex="1" parent="xuh5IIpC34kz-FPivGkV-28">
          <mxGeometry y="40" width="160" height="40" as="geometry" />
        </mxCell>
        <mxCell id="xuh5IIpC34kz-FPivGkV-31" value="" style="group" vertex="1" connectable="0" parent="1">
          <mxGeometry x="720" y="480" width="160" height="80" as="geometry" />
        </mxCell>
        <mxCell id="xuh5IIpC34kz-FPivGkV-32" value="&lt;font style=&quot;font-size: 16px&quot; color=&quot;#666666&quot;&gt;&lt;b&gt;Socket Parse&lt;br&gt;&amp;nbsp;Thread Pool&lt;/b&gt;&lt;/font&gt;" style="rounded=0;whiteSpace=wrap;html=1;" vertex="1" parent="xuh5IIpC34kz-FPivGkV-31">
          <mxGeometry width="160" height="40" as="geometry" />
        </mxCell>
        <mxCell id="xuh5IIpC34kz-FPivGkV-33" value="&lt;font style=&quot;font-size: 14px&quot;&gt;&lt;i&gt;Socket Parse Thread&lt;/i&gt;&lt;/font&gt;" style="rounded=0;whiteSpace=wrap;html=1;" vertex="1" parent="xuh5IIpC34kz-FPivGkV-31">
          <mxGeometry y="40" width="160" height="40" as="geometry" />
        </mxCell>
        <mxCell id="xuh5IIpC34kz-FPivGkV-34" value="" style="group" vertex="1" connectable="0" parent="1">
          <mxGeometry x="500" y="730" width="160" height="80" as="geometry" />
        </mxCell>
        <mxCell id="xuh5IIpC34kz-FPivGkV-35" value="&lt;font style=&quot;font-size: 16px&quot; color=&quot;#666666&quot;&gt;&lt;b&gt;Update GUI&lt;br&gt;&amp;nbsp;Thread Pool&lt;/b&gt;&lt;/font&gt;" style="rounded=0;whiteSpace=wrap;html=1;" vertex="1" parent="xuh5IIpC34kz-FPivGkV-34">
          <mxGeometry width="160" height="40" as="geometry" />
        </mxCell>
        <mxCell id="xuh5IIpC34kz-FPivGkV-36" value="&lt;font style=&quot;font-size: 14px&quot;&gt;&lt;i&gt;Update GUI Thread&lt;/i&gt;&lt;/font&gt;" style="rounded=0;whiteSpace=wrap;html=1;" vertex="1" parent="xuh5IIpC34kz-FPivGkV-34">
          <mxGeometry y="40" width="160" height="40" as="geometry" />
        </mxCell>
        <mxCell id="xuh5IIpC34kz-FPivGkV-37" value="" style="group" vertex="1" connectable="0" parent="1">
          <mxGeometry x="760" y="720" width="160" height="80" as="geometry" />
        </mxCell>
        <mxCell id="xuh5IIpC34kz-FPivGkV-38" value="&lt;font style=&quot;font-size: 16px&quot; color=&quot;#666666&quot;&gt;&lt;b&gt;Database Task&lt;br&gt;&amp;nbsp;Thread Pool&lt;/b&gt;&lt;/font&gt;" style="rounded=0;whiteSpace=wrap;html=1;" vertex="1" parent="xuh5IIpC34kz-FPivGkV-37">
          <mxGeometry width="160" height="40" as="geometry" />
        </mxCell>
        <mxCell id="xuh5IIpC34kz-FPivGkV-39" value="&lt;font style=&quot;font-size: 14px&quot;&gt;&lt;i&gt;Modify/Query Database Thread&lt;/i&gt;&lt;/font&gt;" style="rounded=0;whiteSpace=wrap;html=1;" vertex="1" parent="xuh5IIpC34kz-FPivGkV-37">
          <mxGeometry y="40" width="160" height="40" as="geometry" />
        </mxCell>
      </root>
    </mxGraphModel>
  </diagram>
</mxfile>
